<svg width="555" height="559" xmlns="http://www.w3.org/2000/svg" xmlns:xlink="http://www.w3.org/1999/xlink" xml:space="preserve" overflow="hidden"><defs><clipPath id="clip0"><rect x="1455" y="843" width="555" height="559"/></clipPath></defs><g clip-path="url(#clip0)" transform="translate(-1455 -843)"><path d="M1927.34 1168.55C1936.56 1183.42 1929.77 1189.73 1916.38 1191.9 1910.78 1192.81 1904.94 1192.35 1899.21 1192.28 1878.43 1192.02 1875.57 1189.15 1875.4 1168.14 1875.3 1154.4 1875.53 1140.65 1875.42 1126.9 1875.33 1115.28 1874.69 1104.15 1888.55 1098.23 1895.63 1095.21 1894.18 1086.23 1895.25 1079.67 1899.98 1050.53 1918.57 1033.02 1944.11 1034.18 1970.86 1035.39 1989.23 1054.78 1990.44 1084.22 1990.8 1092.95 1991.36 1099.22 2001.77 1101.87 2009.55 1103.84 2010 1112.37 2010 1119.22 2010 1138.1 2009.53 1156.99 2009.08 1175.86 2008.78 1188.39 2001.15 1193.18 1989.76 1192.2 1977.09 1191.11 1972.22 1196.55 1968.74 1208.77 1935.3 1326.22 1829.54 1404.43 1708.8 1401.94 1571.65 1399.12 1457.37 1281.06 1455.04 1144.54 1453.01 1025.89 1534.88 915.57 1655.26 887.999 1670.8 884.439 1678.58 878.341 1676.06 861.644 1675.16 855.727 1674.34 848.438 1681.06 844.603 1688.4 840.412 1694.19 845.33 1699.85 849.161 1728.31 868.43 1756.84 887.599 1785.1 907.163 1800.69 917.953 1800.65 922.095 1784.82 933.267 1756.74 953.086 1728.42 972.582 1700.02 991.942 1694.62 995.626 1689.09 1001.65 1681.49 997.321 1674.12 993.121 1676.27 985.374 1675.77 978.708 1675.52 975.365 1675.11 972.033 1674.72 968.134 1661.99 966.126 1651.65 971.544 1641.52 976.003 1564.09 1010.07 1519.89 1096.26 1537.56 1177.97 1555.4 1260.49 1630.2 1321.5 1714.11 1321.56 1782.11 1321.6 1833.64 1291.44 1871.01 1235.39 1876.87 1226.59 1881.47 1210.01 1895.58 1218.37 1911.29 1227.68 1899.23 1241.05 1893.12 1251.03 1849.57 1322.14 1760.25 1361.57 1680.06 1345.73 1592.12 1328.35 1525.25 1262.03 1510.3 1177.34 1490.52 1065.34 1568.5 952.192 1676.35 936.367 1690.29 934.322 1705.11 930.718 1702.87 956.74 1721.28 944.416 1737.7 934.949 1752.73 920.263 1738.02 905.856 1722.39 896.282 1703.83 886.176 1704.27 903.086 1696.44 908.711 1682.43 910.534 1586.65 922.988 1507.21 996.628 1486.77 1091.04 1455 1237.68 1569.92 1377.86 1720.4 1376.02 1824.82 1374.74 1924.29 1293.07 1944.73 1191.12 1947.84 1175.6 1951.71 1163.89 1970.95 1164.44 1983.38 1164.8 1983 1154.52 1982.64 1145.77 1982.31 1137.6 1984.61 1128.8 1971.81 1126.07 1946.47 1120.68 1946.49 1118.55 1961.23 1098.48 1969.14 1087.71 1965.26 1076.24 1956.37 1067.51 1947.69 1058.99 1937.68 1059.53 1928.66 1067.54 1919.68 1075.5 1918.81 1091.65 1926.41 1100.05 1937.55 1112.35 1937.21 1119.87 1925.31 1124.67 1901.77 1134.15 1900.49 1136.36 1903.65 1162.55 1910.42 1167.19 1919.64 1162.22 1927.34 1168.55Z" fill="#00B050" fill-rule="evenodd"/><path d="M1931.81 996.407C1932.63 1004.63 1930.95 1010.4 1923.54 1012.48 1916.32 1014.5 1911.39 1010.34 1907.54 1005.12 1886.96 977.224 1861.78 954.518 1831.46 937.418 1823.7 933.042 1818.98 926.439 1824.21 917.67 1829.39 908.966 1837.4 909.805 1845.11 914.366 1879.89 934.925 1911.01 959.399 1931.81 996.407Z" fill="#00B050" fill-rule="evenodd"/><path d="M1818.54 991.287C1811.31 986.602 1804.72 983.09 1798.9 978.598 1792.78 973.88 1791.06 967.121 1795.45 960.499 1799.7 954.098 1806.07 952.121 1813.35 955.938 1841.57 970.751 1864.73 991.347 1883.36 1017.04 1888.4 1023.99 1888.52 1030.99 1881.75 1036.75 1874.26 1043.12 1867.62 1039.14 1862.47 1033.24 1849.36 1018.23 1835.95 1003.58 1818.54 991.287Z" fill="#00B050" fill-rule="evenodd"/></g></svg>